<svg width="86" height="86" viewBox="0 0 86 86" fill="none" xmlns="http://www.w3.org/2000/svg">
<path d="M53.7496 43C53.7496 43.3784 53.617 43.7449 53.3753 44.0361C53.1336 44.3272 52.7973 44.5243 52.4254 44.5939C51.658 44.7391 50.2393 45.0611 48.9349 45.3656C47.162 45.7795 45.7792 47.1624 45.3655 48.9353C45.0611 50.24 44.7392 51.6589 44.5941 52.4264C44.5245 52.7981 44.3267 53.1341 44.0357 53.3757C43.7445 53.6174 43.378 53.75 42.9996 53.75C42.6211 53.75 42.2541 53.6176 41.9629 53.3757C41.672 53.1341 41.4748 52.7981 41.4051 52.4264C41.26 51.6592 40.9381 50.2405 40.6337 48.9359C40.22 47.1626 38.837 45.7795 37.0637 45.3659C35.759 45.0615 34.3401 44.7396 33.5726 44.5945C33.2011 44.5248 32.8654 44.327 32.6239 44.0361C32.3821 43.7449 32.2496 43.3785 32.2496 43C32.2496 42.6214 32.382 42.2546 32.6239 41.9633C32.8655 41.6725 33.2011 41.4752 33.5726 41.4055C34.3398 41.2604 35.7587 40.9385 37.0635 40.6341C38.8369 40.2204 40.22 38.8373 40.6337 37.0639C40.9381 35.7591 41.26 34.3402 41.4051 33.573C41.4748 33.2015 41.6721 32.8659 41.9629 32.6243C42.2542 32.3824 42.621 32.25 42.9996 32.25C43.3781 32.25 43.7445 32.3825 44.0357 32.6243C44.3266 32.8659 44.5244 33.2014 44.5941 33.573C44.7392 34.3405 45.0611 35.7594 45.3655 37.0641C45.7791 38.8374 47.1622 40.2204 48.9355 40.6341C50.2401 40.9385 51.6588 41.2604 52.426 41.4055C52.7979 41.4751 53.1336 41.6722 53.3753 41.9633C53.6172 42.2545 53.7496 42.6215 53.7496 43Z" fill="url(#paint0_linear_7082_22818)"/>
<path fill-rule="evenodd" clip-rule="evenodd" d="M53.7496 43C53.7496 43.3784 53.617 43.7449 53.3753 44.0361C53.1336 44.3272 52.7973 44.5243 52.4254 44.5939C51.658 44.7391 50.2393 45.0611 48.9349 45.3656C47.162 45.7795 45.7792 47.1624 45.3655 48.9353C45.0611 50.24 44.7392 51.6589 44.5941 52.4264C44.5245 52.7981 44.3267 53.1341 44.0357 53.3757C43.7445 53.6174 43.378 53.75 42.9996 53.75C42.6211 53.75 42.2541 53.6176 41.9629 53.3757C41.672 53.1341 41.4748 52.7981 41.4051 52.4264C41.26 51.6592 40.9381 50.2405 40.6337 48.9359C40.22 47.1626 38.837 45.7795 37.0637 45.3659C35.759 45.0615 34.3401 44.7396 33.5726 44.5945C33.2011 44.5248 32.8654 44.327 32.6239 44.0361C32.3821 43.7449 32.2496 43.3785 32.2496 43C32.2496 42.6214 32.382 42.2546 32.6239 41.9633C32.8655 41.6725 33.2011 41.4752 33.5726 41.4055C34.3398 41.2604 35.7587 40.9385 37.0635 40.6341C38.8369 40.2204 40.22 38.8373 40.6337 37.0639C40.9381 35.7591 41.26 34.3402 41.4051 33.573C41.4748 33.2015 41.6721 32.8659 41.9629 32.6243C42.2542 32.3824 42.621 32.25 42.9996 32.25C43.3781 32.25 43.7445 32.3825 44.0357 32.6243C44.3266 32.8659 44.5244 33.2014 44.5941 33.573C44.7392 34.3405 45.0611 35.7594 45.3655 37.0641C45.7791 38.8374 47.1622 40.2204 48.9355 40.6341C50.2401 40.9385 51.6588 41.2604 52.426 41.4055C52.7979 41.4751 53.1336 41.6722 53.3753 41.9633C53.6172 42.2545 53.7496 42.6215 53.7496 43Z" fill="url(#paint1_linear_7082_22818)"/>
<path fill-rule="evenodd" clip-rule="evenodd" d="M53.3753 44.0361C53.617 43.7449 53.7496 43.3784 53.7496 43C53.7496 42.6215 53.6172 42.2545 53.3753 41.9633C53.1336 41.6722 52.7979 41.4751 52.426 41.4055C51.6588 41.2604 50.2401 40.9385 48.9355 40.6341C47.1622 40.2204 45.7791 38.8374 45.3655 37.0641C45.0611 35.7594 44.7392 34.3405 44.5941 33.573C44.5244 33.2014 44.3266 32.8659 44.0357 32.6243C43.7445 32.3825 43.3781 32.25 42.9996 32.25C42.621 32.25 42.2542 32.3824 41.9629 32.6243C41.6721 32.8659 41.4748 33.2015 41.4051 33.573C41.26 34.3402 40.9381 35.7591 40.6337 37.0639C40.22 38.8373 38.8369 40.2204 37.0635 40.6341C35.7587 40.9385 34.3398 41.2604 33.5726 41.4055C33.2011 41.4752 32.8655 41.6725 32.6239 41.9633C32.382 42.2546 32.2496 42.6214 32.2496 43C32.2496 43.3785 32.3821 43.7449 32.6239 44.0361C32.8654 44.327 33.2011 44.5248 33.5726 44.5945C34.3401 44.7396 35.759 45.0615 37.0637 45.3659C38.837 45.7795 40.22 47.1626 40.6337 48.9359C40.9381 50.2405 41.26 51.6592 41.4051 52.4264C41.4748 52.7981 41.672 53.1341 41.9629 53.3757C42.2541 53.6176 42.6211 53.75 42.9996 53.75C43.378 53.75 43.7445 53.6174 44.0357 53.3757C44.3267 53.1341 44.5245 52.7981 44.5941 52.4264C44.7392 51.6589 45.0611 50.24 45.3655 48.9353C45.7792 47.1624 47.162 45.7795 48.9349 45.3656C50.2393 45.0611 51.658 44.7391 52.4254 44.5939C52.7973 44.5243 53.1336 44.3272 53.3753 44.0361Z" fill="url(#paint2_linear_7082_22818)"/>
<path d="M59.9687 29.9719C59.9687 28.8263 59.5165 27.7306 58.7173 26.9254C57.9186 26.1208 56.8394 25.6719 55.7169 25.6719H30.2949C29.1724 25.6719 28.0932 26.1207 27.2945 26.9254C26.4953 27.7306 26.0432 28.8263 26.0432 29.9719V55.7005C26.0433 56.846 26.4955 57.942 27.2945 58.7471C28.0931 59.5513 29.1727 60.0005 30.2949 60.0005H55.7169C56.8391 60.0005 57.9187 59.5512 58.7173 58.7471C59.5164 57.942 59.9685 56.846 59.9687 55.7005V52.6456C59.966 52.602 59.9624 52.5577 59.9624 52.5133C59.9624 52.4689 59.966 52.4249 59.9687 52.3811V33.4636C59.966 33.4198 59.9624 33.3757 59.9624 33.3313C59.9624 33.2868 59.966 33.2428 59.9687 33.199V29.9719ZM64.2687 31.1813H75.2496C76.437 31.1813 77.3995 32.144 77.3996 33.3313C77.3996 34.5187 76.437 35.4813 75.2496 35.4813H64.2687V50.3633H75.2496C76.4369 50.3633 77.3994 51.3261 77.3996 52.5133C77.3996 53.7007 76.437 54.6633 75.2496 54.6633H64.2687V55.7005C64.2685 57.9759 63.3717 60.1609 61.7701 61.7747C60.1676 63.3893 57.9903 64.3005 55.7169 64.3005H54.5895V75.25C54.5895 76.4374 53.6268 77.3999 52.4395 77.4C51.252 77.4 50.2895 76.4374 50.2895 75.25V64.3005H35.2227V75.25C35.2227 76.4374 34.2601 77.4 33.0727 77.4C31.8856 77.3996 30.9227 76.4372 30.9227 75.25V64.3005H30.2949C28.0215 64.3005 25.8443 63.3893 24.2417 61.7747C22.6401 60.1609 21.7433 57.9758 21.7432 55.7005V54.6633H10.7496C9.5622 54.6633 8.59961 53.7007 8.59961 52.5133C8.59984 51.3261 9.56234 50.3633 10.7496 50.3633H21.7432V35.4813H10.7496C9.5622 35.4813 8.59961 34.5187 8.59961 33.3313C8.59969 32.144 9.56225 31.1813 10.7496 31.1813H21.7432V29.9719C21.7432 27.6963 22.6398 25.5097 24.2417 23.8957C25.8443 22.2811 28.0215 21.3719 30.2949 21.3719H30.9227V10.7563C30.9227 9.56919 31.8856 8.60667 33.0727 8.6063C34.26 8.6063 35.2226 9.56896 35.2227 10.7563V21.3719H50.2328V10.75C50.2328 9.56259 51.1954 8.60001 52.3828 8.60001C53.5697 8.60057 54.5328 9.56294 54.5328 10.75V21.3719H55.7169C57.9903 21.3719 60.1676 22.2811 61.7701 23.8957C63.3721 25.5097 64.2687 27.6963 64.2687 29.9719V31.1813Z" fill="url(#paint3_linear_7082_22818)"/>
<defs>
<linearGradient id="paint0_linear_7082_22818" x1="42.9996" y1="8.60001" x2="42.9996" y2="77.4" gradientUnits="userSpaceOnUse">
<stop stop-color="#5EDCFB"/>
<stop offset="1" stop-color="#30A8FF"/>
</linearGradient>
<linearGradient id="paint1_linear_7082_22818" x1="42.9996" y1="8.60001" x2="42.9996" y2="77.4" gradientUnits="userSpaceOnUse">
<stop stop-color="#5EDCFB"/>
<stop offset="1" stop-color="#30A8FF"/>
</linearGradient>
<linearGradient id="paint2_linear_7082_22818" x1="42.9996" y1="8.60001" x2="42.9996" y2="77.4" gradientUnits="userSpaceOnUse">
<stop stop-color="#5EDCFB"/>
<stop offset="1" stop-color="#30A8FF"/>
</linearGradient>
<linearGradient id="paint3_linear_7082_22818" x1="42.9996" y1="8.60001" x2="42.9996" y2="77.4" gradientUnits="userSpaceOnUse">
<stop stop-color="#5EDCFB"/>
<stop offset="1" stop-color="#30A8FF"/>
</linearGradient>
</defs>
</svg>
